<svg data-v-2cb57da0="" version="1.0" xmlns="http://www.w3.org/2000/svg" xmlns:xlink="http://www.w3.org/1999/xlink" width="100%" height="100%" viewBox="0 0 340.000000 250.000000" preserveAspectRatio="xMidYMid meet" color-interpolation-filters="sRGB" style="margin: auto;">  <g data-v-2cb57da0="" fill="#FFFFFF" class="icon-text-wrapper icon-svg-group iconsvg" transform="translate(71.23500061035156,90.28499984741211)"><g class="iconsvg-imagesvg" transform="matrix(1,0,0,1,0,0)" mask="url(#f31ea0ac-1325-48bd-b6a3-e66e47ba8d03)" opacity="1"><g><rect fill="#FFFFFF" fill-opacity="0" stroke-width="2" x="0" y="0" width="60" height="60" class="image-rect"></rect> <svg filter="url(#colors2713423682)" x="0" y="0" width="60" height="60" filtersec="colorsf3913830351" class="image-svg-svg primary" style="overflow: visible;"><svg xmlns="http://www.w3.org/2000/svg" viewBox="-0.02499999999999991 -0.02499999999999991 79.75 79.75"><path d="M39.9 39.9c-14.3 0-26-11.6-26-26 0-2.1 1.7-3.9 3.9-3.9H35m22.5 5.3L45.4 3.1c-1.5-1.5-4-1.5-5.5 0-10.1 10.1-10.1 26.6 0 36.7m29.8-4.9V17.8c0-2.1-1.7-3.9-3.9-3.9-14.3 0-26 11.6-26 26m24.7 17.6l12.1-12.1c1.5-1.5 1.5-4 0-5.5-10.1-10.1-26.6-10.1-36.7 0m4.9 29.8H62c2.1 0 3.9-1.7 3.9-3.9 0-14.3-11.6-26-26-26M22.2 64.5l12.1 12.1c1.5 1.5 4 1.5 5.5 0C50 66.5 50 50 39.9 39.9M10 44.8V62c0 2.1 1.7 3.9 3.9 3.9 14.3 0 26-11.6 26-26M15.3 22.2L3.1 34.4c-1.5 1.5-1.5 4 0 5.5C13.3 50 29.7 50 39.9 39.9" fill="none" stroke="#333" stroke-width="4" stroke-miterlimit="10"></path></svg></svg> <defs><filter id="colors2713423682"><feColorMatrix type="matrix" values="0 0 0 0 0.0390625  0 0 0 0 0.0234375  0 0 0 0 0.09765625  0 0 0 1 0" class="icon-fecolormatrix"></feColorMatrix></filter> <filter id="colorsf3913830351"><feColorMatrix type="matrix" values="0 0 0 0 0.99609375  0 0 0 0 0.99609375  0 0 0 0 0.99609375  0 0 0 1 0" class="icon-fecolormatrix"></feColorMatrix></filter> <filter id="colorsb2577732059"><feColorMatrix type="matrix" values="0 0 0 0 0  0 0 0 0 0  0 0 0 0 0  0 0 0 1 0" class="icon-fecolormatrix"></feColorMatrix></filter></defs></g><rect v-gra="id" width="72" height="72" transform="translate(-6, -6)" style="pointer-events:none;" fill="url(#nB3mH73kZGA6Sc4FyH6pk)"></rect></g> <g transform="translate(72.47000122070312,0)"><g data-gra="path-name" fill-rule="" class="tp-name iconsvg-namesvg" transform="matrix(1,0,0,1,0,0)" opacity="1"><g transform="scale(1)"><g><path d="M32.44-13.07L14.17-13.07Q13.91-11.63 13.81-10.34 13.71-9.04 13.71-8L13.71-8Q13.71-7.41 13.78-6.7 13.85-5.98 14.07-5.36 14.3-4.75 14.72-4.32 15.15-3.9 15.93-3.9L15.93-3.9Q16.51-3.9 17.26-4.29 18-4.68 18.75-5.4 19.5-6.11 20.18-7.15 20.87-8.19 21.25-9.49L21.25-9.49 31.92-9.49 30.23-2.54Q28.93-1.69 27.23-1.1 25.55-0.52 23.66-0.16 21.78 0.2 19.82 0.36 17.88 0.52 16.12 0.52L16.12 0.52Q12.87 0.52 10.08-0.07 7.28-0.65 5.2-2.08 3.12-3.51 1.92-5.88 0.72-8.26 0.72-11.77L0.72-11.77Q0.72-14.95 1.72-18 2.73-21.06 5.1-23.43 7.48-25.8 11.47-27.23 15.47-28.67 21.45-28.67L21.45-28.67Q27.95-28.67 31.23-26.65 34.52-24.64 34.52-20.35L34.52-20.35Q34.52-18.59 34-16.54 33.48-14.5 32.44-13.07L32.44-13.07ZM22.82-20.8L22.82-20.8Q22.82-22.82 22.16-23.53 21.52-24.25 20.61-24.25L20.61-24.25Q19.57-24.25 18.69-23.56 17.81-22.88 17.09-21.74 16.38-20.61 15.79-19.14 15.21-17.68 14.82-16.05L14.82-16.05 22.23-16.05Q22.36-16.84 22.49-17.68L22.49-17.68Q22.62-18.39 22.72-19.24 22.82-20.09 22.82-20.8ZM49.08-4.23L45.83 10.92 32.56 10.92 40.76-27.95 51.35-27.95 52.52-23.79 52.91-23.79Q55.25-26.26 58.14-27.33 61.03-28.41 63.83-28.41L63.83-28.41Q66.11-28.41 67.63-27.72 69.16-27.04 70.07-25.87 70.98-24.7 71.37-23.07 71.76-21.45 71.76-19.63L71.76-19.63Q71.76-18.72 71.63-16.9 71.5-15.08 71.05-12.84 70.59-10.6 69.75-8.22 68.9-5.85 67.5-3.9 66.11-1.95 63.99-0.72 61.88 0.52 58.95 0.52L58.95 0.52Q57.33 0.52 55.8 0.13 54.27-0.26 53.04-0.91 51.8-1.56 50.86-2.44 49.92-3.31 49.47-4.23L49.47-4.23 49.08-4.23ZM52.72-5.79L52.72-5.79Q54.27-5.79 55.31-7.44 56.36-9.1 57-11.34 57.66-13.59 57.95-15.83 58.24-18.07 58.24-19.18L58.24-19.18Q58.24-20.48 57.82-21.32 57.39-22.16 56.29-22.16L56.29-22.16Q55.05-22.16 53.95-21.29 52.84-20.41 52.33-19.76L52.33-19.76 49.79-7.87Q50.31-7.15 51.02-6.47 51.74-5.79 52.72-5.79ZM92.11-27.95L86.06 0 72.86 0 78.78-27.95 92.11-27.95ZM93.8-36.47L93.8-36.47Q93.8-34.97 93.18-33.87 92.56-32.76 91.55-31.98 90.55-31.2 89.25-30.81 87.94-30.42 86.58-30.42L86.58-30.42Q83.98-30.42 82.22-31.66 80.47-32.89 80.47-35.55L80.47-35.55Q80.47-36.98 81.06-38.12 81.64-39.26 82.65-40.01 83.66-40.76 84.99-41.15 86.32-41.54 87.75-41.54L87.75-41.54Q90.28-41.54 92.04-40.3 93.8-39.07 93.8-36.47ZM123.31-10.72L121.42-1.56Q118.69-0.46 115.67 0.03 112.65 0.52 108.81 0.52L108.81 0.52Q105.43 0.52 102.6-0.16 99.78-0.84 97.7-2.34 95.62-3.83 94.45-6.21 93.28-8.58 93.28-11.96L93.28-11.96Q93.28-15.47 94.48-18.49 95.68-21.52 98.12-23.79 100.56-26.07 104.33-27.37 108.09-28.67 113.3-28.67L113.3-28.67Q117.52-28.67 120.64-27.98 123.76-27.3 125.78-24.89L125.78-24.89 123.95-16.57 115.12-16.57Q115.18-17.68 115.25-18.53 115.31-19.37 115.31-20.41L115.31-20.41Q115.31-22.49 114.86-23.37 114.4-24.25 113.36-24.25L113.36-24.25Q111.54-24.25 110.18-22.46 108.81-20.67 107.93-18.17 107.06-15.67 106.63-12.9 106.21-10.14 106.21-8.19L106.21-8.19Q106.21-7.48 106.28-6.73 106.34-5.98 106.57-5.33 106.8-4.68 107.19-4.29 107.58-3.9 108.29-3.9L108.29-3.9Q108.94-3.9 109.78-4.29 110.63-4.68 111.41-5.49 112.19-6.31 112.91-7.61 113.62-8.91 114.01-10.72L114.01-10.72 123.31-10.72Z" transform="translate(-0.7199999690055847, 41.540000915527344)"></path></g> <!----> <!----> <!----> <!----> <!----> <!----> <!----></g></g> <g data-gra="path-slogan" fill-rule="" class="tp-slogan iconsvg-slogansvg" fill="#FFFFFF" transform="matrix(1,0,0,1,51.349998474121094,58.459999084472656)" opacity="1"><!----> <!----> <g transform="scale(1, 1)"><g transform="scale(1)"><path d="M1.22-9.23L1.22-9.23Q1.92-9.14 4.17-9.14L4.17-9.14L7.36-9.14Q10.50-9.14 10.73-9.23L10.73-9.23Q10.64-8.34 10.64-6.38L10.64-6.38L10.64-1.88Q10.64 0.70 10.73 0.94L10.73 0.94L9.52 0.94Q9.66 0.80 9.66 0.28L9.66 0.28L2.30 0.28Q2.30 0.84 2.39 0.94L2.39 0.94L1.22 0.94Q1.31 0.80 1.31-1.88L1.31-1.88L1.31-6.52Q1.31-8.91 1.22-9.23ZM9.66-8.25L2.30-8.25L2.30-0.47L9.66-0.47L9.66-8.25ZM5.02-8.16L5.02-8.16Q6.23-7.88 6.19-7.78L6.19-7.78Q6.19-7.73 6.05-7.69L6.05-7.69Q5.77-7.50 5.58-7.22L5.58-7.22Q6.42-7.22 7.78-7.27L7.78-7.27Q8.53-7.27 8.81-7.27L8.81-7.27Q7.92-5.91 6.84-4.88L6.84-4.88Q7.97-4.22 9.52-4.13L9.52-4.13Q9.28-3.80 9-3.23L9-3.23Q8.95-3.09 8.91-3L8.91-3Q7.03-3.61 6.14-4.22L6.14-4.22Q5.06-3.61 3.09-3.05L3.09-3.05Q2.95-3.52 2.48-3.98L2.48-3.98Q4.08-4.13 5.48-4.83L5.48-4.83Q5.11-5.16 4.55-5.91L4.55-5.91Q4.36-5.72 3.94-5.25L3.94-5.25Q3.75-5.06 3.70-5.02L3.70-5.02Q3.38-5.25 2.77-5.48L2.77-5.48Q4.27-6.23 5.02-8.16ZM7.22-6.52L7.22-6.52L5.11-6.52L4.97-6.38Q5.67-5.58 6.19-5.30L6.19-5.30Q6.84-5.91 7.22-6.52ZM4.88-3.05L5.30-3.66Q6.38-3.47 7.69-2.95L7.69-2.95L7.13-2.16Q6.38-2.63 4.88-3.05L4.88-3.05ZM3.98-1.78L3.98-1.78L4.45-2.53Q5.95-2.16 7.83-1.41L7.83-1.41L7.22-0.56Q6-1.17 3.98-1.78ZM17.72-9.47L19.03-9.75Q19.17-8.95 19.41-8.30L19.41-8.30L21.75-8.30Q22.83-8.34 23.16-8.39L23.16-8.39L23.16-7.27Q22.55-7.41 21.70-7.41L21.70-7.41L14.67-7.41Q14.58-4.41 14.58-3.75L14.58-3.75Q14.48-1.13 13.13 1.22L13.13 1.22Q12.70 0.61 12.23 0.38L12.23 0.38Q13.50-0.98 13.59-3.75L13.59-3.75Q13.73-7.45 13.59-8.44L13.59-8.44Q14.34-8.30 15.09-8.30L15.09-8.30L18.33-8.30Q18-8.91 17.72-9.47L17.72-9.47ZM18.28-6.84L18.28-6.84Q19.45-6.84 19.55-6.75L19.55-6.75Q19.55-6.75 19.50-6.61L19.50-6.61Q19.27-5.95 19.27-5.20L19.27-5.20L21.52-5.20Q22.36-5.20 22.78-5.30L22.78-5.30L22.78-4.22Q22.31-4.31 21.56-4.31L21.56-4.31L19.55-4.31Q21-1.73 23.58-0.98L23.58-0.98Q22.97-0.52 22.64 0L22.64 0Q20.11-1.36 19.27-3.61L19.27-3.61L19.27-0.33Q19.27-0.23 19.27-0.05L19.27-0.05Q19.22 0.61 19.31 1.13L19.31 1.13L18.28 1.13Q18.42 0.23 18.38-0.23L18.38-0.23L18.38-3.61Q17.20-1.55 15.28 0.19L15.28 0.19Q14.86-0.28 14.20-0.52L14.20-0.52Q16.55-1.83 17.81-4.31L17.81-4.31L16.59-4.31Q15.98-4.31 15.33-4.22L15.33-4.22L15.33-5.30Q15.89-5.20 16.55-5.20L16.55-5.20L18.38-5.20Q18.38-6.23 18.28-6.84Z" transform="translate(-1.21875, 9.75)"></path></g></g></g></g></g><defs v-gra="od"></defs><defs v-gra="id"><filter id="4e6dfde3-5bd8-4377-97c7-72832e686c23" filterUnits="userSpaceOnUse"><feColorMatrix type="matrix" values="0 0 0 0 0.99609375  0 0 0 0 0.99609375  0 0 0 0 0.99609375  0 0 0 1 0"></feColorMatrix></filter><linearGradient x1="0" y1="1" x2="0" y2="0" id="nB3mH73kZGA6Sc4FyH6pk"><stop offset="0%" stop-color="#6a12cb"></stop><stop offset="100%" stop-color="#2575fc"></stop></linearGradient><filter id="42443b3f1de60f6b6fd3b6a9844b4764" filterUnits="userSpaceOnUse"><feColorMatrix type="matrix" values="0 0 0 0 0.99609375  0 0 0 0 0.99609375  0 0 0 0 0.99609375  0 0 0 1 0"></feColorMatrix></filter></defs><mask v-gra="im" id="f31ea0ac-1325-48bd-b6a3-e66e47ba8d03"><g class="iconsvg-imagesvg" filter="url(#4e6dfde3-5bd8-4377-97c7-72832e686c23)"><g><rect fill="#FFFFFF" fill-opacity="0" stroke-width="2" x="0" y="0" width="60" height="60" class="image-rect"></rect> <svg x="0" y="0" width="60" height="60" filtersec="colorsf3913830351" class="image-svg-svg primary" style="overflow: visible;"><svg xmlns="http://www.w3.org/2000/svg" viewBox="-0.02499999999999991 -0.02499999999999991 79.75 79.75"><path d="M39.9 39.9c-14.3 0-26-11.6-26-26 0-2.1 1.7-3.9 3.9-3.9H35m22.5 5.3L45.4 3.1c-1.5-1.5-4-1.5-5.5 0-10.1 10.1-10.1 26.6 0 36.7m29.8-4.9V17.8c0-2.1-1.7-3.9-3.9-3.9-14.3 0-26 11.6-26 26m24.7 17.6l12.1-12.1c1.5-1.5 1.5-4 0-5.5-10.1-10.1-26.6-10.1-36.7 0m4.9 29.8H62c2.1 0 3.9-1.7 3.9-3.9 0-14.3-11.6-26-26-26M22.2 64.5l12.1 12.1c1.5 1.5 4 1.5 5.5 0C50 66.5 50 50 39.9 39.9M10 44.8V62c0 2.1 1.7 3.9 3.9 3.9 14.3 0 26-11.6 26-26M15.3 22.2L3.1 34.4c-1.5 1.5-1.5 4 0 5.5C13.3 50 29.7 50 39.9 39.9" fill="none" stroke="#333" stroke-width="4" stroke-miterlimit="10"></path></svg></svg> <defs><filter id="colors2713423682"><feColorMatrix type="matrix" values="0 0 0 0 0.0390625  0 0 0 0 0.0234375  0 0 0 0 0.09765625  0 0 0 1 0" class="icon-fecolormatrix"></feColorMatrix></filter> <filter id="colorsf3913830351"><feColorMatrix type="matrix" values="0 0 0 0 0.99609375  0 0 0 0 0.99609375  0 0 0 0 0.99609375  0 0 0 1 0" class="icon-fecolormatrix"></feColorMatrix></filter> <filter id="colorsb2577732059"><feColorMatrix type="matrix" values="0 0 0 0 0  0 0 0 0 0  0 0 0 0 0  0 0 0 1 0" class="icon-fecolormatrix"></feColorMatrix></filter></defs></g></g></mask></svg>